<?xml version="1.0" encoding="UTF-8" standalone="no"?>
<!DOCTYPE svg PUBLIC "-//W3C//DTD SVG 1.1//EN" "http://www.w3.org/Graphics/SVG/1.1/DTD/svg11.dtd">
<svg width="24" height="24" viewBox="0 0 24 24" version="1.1">
    <path class="outer" d="M12,2C6.514,2 2,6.514 2,12C2,17.486 6.514,22 12,22C17.486,22 22,17.486 22,12C22,6.514 17.486,2 12,2M12,4C16.389,4 20,7.611 20,12C20,16.389 16.389,20 12,20C7.611,20 4,16.389 4,12C4,7.611 7.611,4 12,4"/>
    <path class="inner" d="M12,6C8.708,6 6,8.708 6,12C6,15.292 8.708,18 12,18C15.292,18 18,15.292 18,12C18,8.708 15.292,6 12,6M12,8C14.194,8 16,9.806 16,12C16,14.194 14.194,16 12,16C9.806,16 8,14.194 8,12C8,9.806 9.806,8 12,8M12,10C10.903,10 10,10.903 10,12C10,13.097 10.903,14 12,14C13.097,14 14,13.097 14,12C14,10.903 13.097,10 12,10Z"/>
    <path class="center" d="M12,10C10.903,10 10,10.903 10,12C10,13.097 10.903,14 12,14C13.097,14 14,13.097 14,12C14,10.903 13.097,10 12,10Z"/>
</svg>
